Patient4_TMGait_0pt2_03_right_09_EMG.mot
version=1
nRows=36
nColumns=33
inDegrees=no
endheader
time	1LAddLong	2LGlutMax	3LGlutMed	4LIliopsoas	5LSemiMemb	6LBicFemLong	7LRecFem	8LVastMed	9LVastLat	10LGasMed	11LTibAnt	12lTibPost	13LPeroneusLong	14LSol	15LExtDigLong	16LFlexDigLong	17RAddLong	18RGlutMax	19RGlutMed	20RIliopsoas	21RSemiMemb	22RBicFemLong	23RRecFem	24RVastMed	25RVastLat	26RGasMed	27RTibAnt	28RTibPost	29RPeroneusLong	30RSol	31RExtDigLong	32RFlexDigLong
21.448	-0.016937	0.12604	0.013428	-0.005798	0.039673	-0.023346	-0.009308	0.018005	-0.021973	0.24719	-0.014801	-0.012512	-0.41779	0.11276	0.084839	-0.12146	-0.040894	-0.036011	-0.31128	-0.007324	0.10452	-0.046539	-0.2446	-0.022583	0.011749	-0.001373	0.858	-0.000458	-0.074158	0.011292	-0.003967	-0.003052
21.449	-0.016632	0.14633	0.06424	-0.02655	0.040436	-0.016327	-0.019226	0.008087	0.04364	0.13763	-0.002747	0.001373	-0.77896	-0.092468	0.10895	0.003357	-0.042725	-0.041962	-0.71625	-0.10071	0.11734	0.006104	-0.20309	0.026398	0.022278	-0.000458	0.45181	0.002747	-0.037994	0.12848	0.00061	-0.007019
21.45	0.010376	0.11673	0.001221	0.002899	0.055542	-0.044403	-0.088959	0.008392	0.072784	0.089874	0.034027	0.031891	-0.27115	-0.26733	0.019836	0.18188	-0.027618	-0.046997	-0.59799	-0.048218	0.14587	-0.012054	-0.20111	0.017853	0.023499	0.00824	-0.34607	0.005951	0.039063	0.050659	-0.00351	0.009613
21.451	0.00351	0.050964	-0.12894	0.024414	-0.018005	-0.046539	-0.15915	-0.008545	0.06958	-0.20584	0.002899	0.018311	0.39047	-0.000305	-0.014801	-0.11734	0.000916	-0.032349	-0.13229	0.017853	0.15045	-0.041656	-0.17654	0.003204	0.016937	0.009766	-0.69824	0.008392	0.046997	-0.042267	-0.002441	0.001678
21.452	0.009003	-0.000458	-0.2887	0.026245	-0.04364	-0.073547	-0.15564	0.006104	0.26703	-0.31158	-0.013733	0.001984	-0.008087	-0.064545	-0.051727	-0.21164	0.10803	-0.086975	-0.55252	0.097809	0.1506	-0.054932	-0.18585	-0.002289	0.005493	0.01358	-0.35278	0.005188	0.009155	-0.057068	-0.001526	0.000305
21.453	0.025024	0.012512	-0.16068	0.023804	-0.011444	-0.063324	-0.0354	-0.009308	0.29495	-0.25009	0.000305	-0.003204	-0.003357	-0.16342	-0.095062	-0.11734	0.15732	-0.047913	-0.71594	0.091553	0.13931	-0.065918	-0.21713	-0.025635	0.006104	0.007935	0.06134	0.00885	-0.027466	0.059357	-0.001678	-0.007477
21.454	0.028229	-0.050812	-0.10712	0.024414	-0.019226	-0.069122	0.084686	-0.018616	0.19333	-0.26672	-0.000763	-0.00061	0.13794	-0.15656	-0.063171	-0.062256	0.1915	-0.041504	-0.28229	-0.010681	0.099945	-0.086823	-0.2388	-0.052795	0.00885	0.014954	0.3067	0.00946	-0.076141	0.11627	-0.002136	-0.013275
21.455	0.029144	0.000458	0.01236	0.016327	0.009766	-0.016632	0.10117	-0.02182	0.05127	-0.20035	0.001831	0	0.094757	-0.039673	0.011749	-0.027008	0.15274	-0.041504	-0.46402	0.00946	0.076752	-0.07843	-0.19562	-0.020905	0.01297	0.012817	0.13977	0.00946	-0.042419	0.059052	-0.004883	-0.014343
21.456	0.028076	-0.002747	0.022125	0.018005	0.079041	-0.032196	0.066376	-0.023193	-0.014801	-0.11261	0.013733	0.001984	-0.057526	-0.045471	0.004272	-0.012665	0.093231	-0.001373	-0.41596	0.019684	0.077057	-0.056	-0.23331	-0.034943	0.035706	0.015564	-0.022125	0.015869	0.002136	0.016022	-0.006256	-0.016785
21.457	0.017853	0.006866	-0.10452	-0.024872	0.06897	-0.00824	0.020752	-0.013123	-0.027924	-0.055084	0.024109	-0.001831	0.15289	-0.003967	0.047302	-0.017395	0.03479	0.005188	-0.53345	0.036469	0.10513	-0.045929	-0.21225	-0.083771	0.026093	0.005493	0.011902	0.015869	-0.035248	0.016785	-0.002441	-0.019684
21.458	0.010834	-0.006561	-0.15427	-0.006714	0.050659	0.036316	0.006866	-0.007172	0.044708	-0.039215	0.039673	-0.003357	0.24231	0.11246	0.041504	-0.00351	-0.042877	0.092163	-0.93155	0.071716	0.10834	-0.02533	-0.20905	-0.043182	0.031738	0.009155	-0.27435	0.015106	-0.097504	0.005035	-0.001984	-0.012665
21.459	0.009613	-0.033875	0.26977	-0.018921	0.0177	0.046387	-0.0177	-0.000458	0.072784	-0.006409	0.007782	-0.002594	-0.19516	0.18494	0.052338	0.008545	-0.10895	0.10498	-0.65521	0.056458	0.12253	-0.008698	-0.23651	-0.066833	0.033417	0.00351	-0.19836	0.026245	-0.16647	0.022125	-0.005646	-0.014191
21.46	-0.000305	-0.10422	0.28366	-0.005798	-0.00351	0.028687	-0.013123	0.002441	0.079651	0.02594	-0.021362	0.004425	0.11536	0.047913	-0.001373	0.014496	-0.11978	0.038452	-0.56686	0.12466	0.11246	0.014954	-0.25513	-0.052338	0.061646	0.007935	0.050354	0.019836	-0.18768	0.036011	-0.001221	-0.012207
21.461	0.005646	-0.2002	-0.050507	-0.007172	-0.010376	0.008392	0.006256	0.020447	0.065002	0.09613	-0.024414	-0.01236	0.2771	-0.02121	-0.027924	0.04837	-0.11856	-0.059052	-0.59113	0.26016	0.12451	0.033569	-0.27283	-0.028839	0.038605	0.00946	0.38956	0.019684	-0.088348	0.023346	-0.002441	-0.011749
21.462	0.000763	-0.21515	-0.20096	0.002899	-0.033569	0.006104	0.02533	0.019684	0.072327	0.10529	0.001984	-0.064392	-0.000305	-0.067139	-0.057983	-0.003662	-0.092773	-0.084229	-0.93185	0.21576	0.11795	0.050201	-0.23895	0.003967	0.045166	0.021973	0.7132	0.00946	0.081329	-0.061951	-0.003052	-0.007477
21.463	0.003052	-0.16098	-0.17059	0.030975	0.010834	0.005798	0.046387	0.021057	0.036469	0.050659	-0.011597	0.11307	0.18204	0.058136	-0.047455	0.023499	-0.065308	-0.046692	-1.1626	0.13397	0.12329	0.052795	-0.19318	-0.005341	0.064392	0.032501	-0.17029	0.012054	0.28854	-0.093231	-0.002441	-0.004272
21.464	0.009155	-0.11429	-0.17425	0.057068	0.047302	-0.015869	0.051575	0.012665	-0.02594	0.034637	-0.014954	0.013275	0.13016	0.1944	-0.025177	-0.019226	-0.034332	-0.052948	-1.7961	0.019226	0.13412	0.053711	-0.18784	0.013275	0.026093	0.01709	-0.45258	0.010681	0.03418	-0.03891	-0.002441	-0.013428
21.465	0.00473	-0.089722	0.045929	0.043488	-0.010986	0.008698	0.046844	0.032196	-0.077362	-0.055389	-0.009155	-0.016022	-0.063171	0.1532	0.009308	-0.035553	-0.028992	0.042419	-1.7485	-0.068359	0.13855	0.06134	-0.23025	-0.042114	0.0383	0.00351	-0.14297	0.007019	-0.1561	0.012665	-0.003662	-0.015259
21.466	0.007019	-0.040131	0.21606	0.011139	-0.052185	0.03067	0.067749	0.047607	-0.056305	-0.010681	0.039368	-0.016937	-0.35004	0.11353	0.01236	-0.04425	-0.054169	0.076904	-0.59921	-0.16174	0.13382	0.053253	-0.16495	-0.039673	0.033875	-0.005493	-0.009003	0.007172	-0.24506	-0.009613	-0.001221	-0.015564
21.467	0.005035	-0.057678	0.006866	0.005188	-0.068054	0.050659	0.10254	0.027466	0.046844	0.013885	0.051575	-0.01358	-0.056763	-0.060272	0.018311	-0.023956	-0.082245	0.066833	0.26489	-0.2533	0.13138	0.014038	-0.19073	-0.019073	0.018005	0.003662	-0.12924	0.00946	-0.18524	-0.077209	-0.002289	-0.012665
21.468	0.005188	-0.058136	-0.021973	-0.011749	0.03067	0.065918	0.084991	0.003967	0.21347	0.010376	0.020752	0.000153	0.002594	-0.19287	0.087738	-0.020447	-0.071869	0.06424	0.80276	-0.21606	0.12711	0.002289	-0.1973	-0.006714	0.014954	0.003815	-0.15228	0.006104	-0.037842	-0.05661	-0.00473	-0.011444
21.469	0.003052	-0.051117	-0.053558	-0.031128	0.085144	0.050812	0.027008	-0.007477	0.32974	0.007019	-0.00412	0.006561	-0.48309	-0.098267	0.048523	0.01297	-0.06012	0.033569	0.55649	-0.19211	0.11597	-0.016632	-0.20325	-0.02594	0.021057	0.007477	0.013123	-0.003662	0.12787	-0.064087	-0.000305	-0.01236
21.47	-0.00473	-0.1004	-0.15991	-0.006104	0.07309	0.009308	-0.055695	-0.018616	0.36102	0.011139	-0.027161	0.008087	-0.20065	-0.016632	0.00061	-0.003052	0.000763	-0.09903	-0.26413	-0.14023	0.097504	-0.027313	-0.19745	-0.029144	0.012817	0.01358	0.34607	0.000305	0.20279	-0.088348	-0.000305	-0.015259
21.471	-0.010071	-0.069275	-0.045776	-0.011749	0.034943	-0.057068	-0.12177	-0.007935	0.26077	0.090179	0.019531	0.003357	0.39902	-0.007019	-0.012207	-0.018921	0.024414	-0.12177	-0.4689	-0.13168	0.093689	-0.053101	-0.1181	-0.057831	-0.005188	0.007782	0.5806	-0.002136	-0.28778	-0.080261	-0.00061	-0.005035
21.472	-0.00473	-0.063324	0.16113	-0.003967	-0.002136	-0.015564	-0.12741	-0.004883	0.092926	0.13534	0.046082	0.002441	0.44296	0.12405	-0.016327	-0.003204	0.041962	-0.10635	-0.04425	-0.15533	0.079193	-0.058441	-0.12863	-0.09613	-0.01358	0.004883	0.15106	-0.000305	-0.22034	-0.040741	-0.003052	-0.014038
21.473	0.006866	-0.084534	0.052032	-0.000916	-0.003357	0.00473	-0.048065	0.006104	-0.082397	-0.007935	0.026245	0.005646	0.14832	0.27618	-0.078735	-0.006256	0.028229	-0.086975	-0.24185	-0.12116	0.095825	-0.039825	-0.13092	-0.094147	-0.005798	-0.006256	0.17151	-0.00824	-0.12665	0.049133	-0.002441	-0.011292
21.474	0.011597	-0.095367	0.07843	0.016937	0.052948	-0.015717	-0.044098	-0.010681	-0.4834	-0.14999	0.005341	0.004578	-0.41412	0.20721	-0.054779	0.011749	-0.003357	-0.098572	-0.15045	-0.097809	0.10452	-0.019531	-0.13672	-0.063934	-0.004425	0.00351	0.17105	-0.007935	-0.16449	0.068054	0.000153	-0.005798
21.475	0.008545	-0.088043	0.03418	0.015259	0.035706	-0.027008	-0.023956	0.031281	-0.72754	-0.32532	-0.042114	0.007477	-0.037842	0.008087	-0.056305	0.030212	-0.013733	-0.15289	-0.18326	0.006714	0.10864	-0.025024	-0.1387	-0.0737	0.003204	0.006409	-0.24704	-0.005188	-0.19028	0.018616	-0.002289	-0.001373
21.476	-0.004272	-0.094452	-0.14603	0.002136	0.001831	0.009766	0.037079	0.005035	-0.50217	-0.31662	-0.020905	0.007782	0.046692	-0.094604	-0.016022	-0.015869	0.052185	-0.1622	-0.55161	0.006409	0.10483	-0.028839	-0.15595	-0.084991	0.011444	0.009003	-0.26581	-0.006409	0.053711	-0.037842	0.007935	0.000916
21.477	-0.007629	-0.0383	-0.23789	-0.003204	-0.011444	0.024719	0.19073	-0.007935	-0.12909	-0.3122	-0.015259	0.012207	0.18982	0.12344	0.083771	-0.003357	0.12482	-0.1268	-0.42297	0.05249	0.10834	-0.052338	-0.17227	-0.037079	0.016022	0.022278	-0.023956	-0.00824	-0.048523	-0.026398	0.000458	0.000305
21.478	-0.007019	0.014954	-0.14725	0.022278	-0.091248	-0.014648	0.22568	-0.005188	0.006104	-0.24689	-0.000153	0.005493	-0.26504	0.16617	0.112	0.005188	0.15015	-0.016785	-0.28564	0.16083	0.11231	-0.03067	-0.1474	-0.094299	0.019531	0.026398	-0.066223	-0.010376	0.077515	-0.043335	0.000305	-0.005341
21.479	-0.004425	0.030518	0.26138	0.03418	-0.11261	-0.045471	0.14069	0.002289	0.023804	-0.028076	0.011292	-0.000153	-0.25452	-0.059814	0.037231	-0.005188	0.10986	-0.011139	-0.27832	0.13443	0.10757	-0.025024	-0.17731	-0.084381	0.03952	0.01358	-0.32272	-0.009308	0.16251	-0.052948	-0.001526	-0.007324
21.48	0.009918	-0.013885	0.028381	0.017548	-0.098114	-0.078125	0.058289	0.000916	0.079346	0.10422	0.007477	-0.05661	-0.31143	-0.46814	-0.070496	-0.009918	0.052338	-0.083923	-0.22201	0.06546	0.050201	0.005188	-0.18204	-0.053253	0.041504	-0.005035	-0.32455	-0.01297	0.16251	-0.072784	-0.003357	-0.005798
21.481	0.016022	-0.003357	-0.22171	0.017395	0.071716	-0.065155	0.014343	-0.006256	0.1033	0.15671	0.011749	0.090027	0.004883	-0.34592	-0.044098	-0.027466	-0.010681	-0.056	-0.47485	0.098877	0.045166	0.018005	-0.15976	-0.050201	0.039063	0.00061	-0.00061	-0.016632	0.001831	-0.009918	-0.001526	-0.007782
21.482	0.029755	0.031128	-0.07431	0.014954	0.12604	-0.023651	0.059814	-0.005493	0.15518	0.0737	0.014801	0.038147	0.02243	-0.37659	0.047607	-0.014191	-0.072021	-0.039978	-0.28305	0.06012	0.07019	0.013275	-0.15488	-0.063324	0.031281	0.007782	-0.21576	-0.006866	-0.003815	0.072174	-0.001984	-0.001984
21.483	-0.05188	-0.027924	0.41718	0.007629	0.062866	0.021515	0.14603	-0.007324	0.20798	0.024567	-0.015106	-0.002899	0.43335	-0.22079	0.073395	-0.003662	-0.078888	0.002594	-0.30487	-0.032196	0.088501	0.014954	-0.14191	-0.049438	0.038605	0.007629	-0.4126	-0.018616	0.092316	0.012817	0.000458	-0.002747
